<svg width="177" height="42" fill="none" xmlns="http://www.w3.org/2000/svg"><path d="M23.091 0S26.802 9.077 10.9 15.174C2.259 18.487-4.378 26.976 3.546 40.09c.657-5.862 3.47-18.786 15.57-21.735 0 0-11.261 4.21-12.256 23.273 5.787.812 19.358 1.358 23.388-10.42C35.568 15.649 23.09 0 23.09 0z" fill="#8DCE97"/><path d="M6.865 41.548c12.285-4.903 21.224-16.388 22.458-30.1C26.81 4.675 23.09 0 23.09 0S26.802 9.077 10.9 15.174C2.259 18.487-4.378 26.976 3.546 40.09c.657-5.862 3.47-18.786 15.57-21.735 0 0-11.228 4.2-12.25 23.193zM2.32 15.477a1.148 1.148 0 100-2.297 1.148 1.148 0 000 2.297zM5.93 14a.82.82 0 100-1.64.82.82 0 000 1.64zM5.192 7.438a2.05 2.05 0 100-4.102 2.05 2.05 0 000 4.102z" fill="#8DCE97"/><path d="M11.508 10.72a.656.656 0 100-1.313.656.656 0 000 1.312zM17.005 8.258a1.887 1.887 0 100-3.773 1.887 1.887 0 000 3.773z" fill="#8DCE97"/><g opacity=".8" fill="#213E26"><path opacity=".8" d="M50.716 37.896c-1.84 0-3.504-.4-4.99-1.2a9.018 9.018 0 01-3.478-3.31C41.416 31.963 41 30.373 41 28.618c0-1.755.416-3.336 1.248-4.743a8.912 8.912 0 013.504-3.336c1.486-.8 3.15-1.2 4.99-1.2 1.38 0 2.655.227 3.823.679a7.93 7.93 0 012.973 1.98l-1.248 1.225c-1.451-1.442-3.283-2.163-5.495-2.163-1.469 0-2.805.33-4.008.99a7.407 7.407 0 00-2.84 2.711c-.673 1.147-1.01 2.433-1.01 3.857 0 1.425.337 2.71 1.01 3.858a7.408 7.408 0 002.84 2.71c1.203.66 2.54.99 4.008.99 2.23 0 4.062-.73 5.495-2.189l1.248 1.225c-.814.87-1.814 1.538-3 2.007-1.168.452-2.442.678-3.822.678zM66.004 23.926c1.823 0 3.221.452 4.194 1.355.974.886 1.46 2.207 1.46 3.962v8.496h-1.805v-2.137c-.424.713-1.053 1.269-1.884 1.668-.814.4-1.788.6-2.92.6-1.558 0-2.797-.365-3.717-1.095-.92-.73-1.38-1.694-1.38-2.893 0-1.164.425-2.102 1.274-2.815.867-.712 2.239-1.069 4.115-1.069h4.433v-.834c0-1.181-.337-2.076-1.01-2.684-.671-.625-1.654-.938-2.946-.938-.884 0-1.734.147-2.548.443-.814.278-1.513.669-2.097 1.173l-.85-1.382c.708-.59 1.558-1.042 2.549-1.355a9.846 9.846 0 013.132-.495zm-.663 12.484c1.061 0 1.973-.234 2.734-.704.76-.486 1.327-1.181 1.699-2.085V31.38h-4.38c-2.39 0-3.584.817-3.584 2.45 0 .8.31 1.433.93 1.902.618.452 1.486.678 2.6.678zM80.52 37.87c-1.132 0-2.22-.157-3.265-.47-1.026-.33-1.831-.738-2.415-1.224l.849-1.46c.584.452 1.319.825 2.203 1.12a9.156 9.156 0 002.761.418c1.274 0 2.212-.191 2.814-.574.62-.4.929-.955.929-1.668 0-.504-.168-.895-.504-1.173-.337-.295-.761-.512-1.275-.651-.513-.157-1.194-.304-2.044-.443-1.132-.209-2.044-.417-2.734-.626A4.23 4.23 0 0176.061 30c-.478-.522-.717-1.243-.717-2.164 0-1.146.487-2.085 1.46-2.815s2.327-1.094 4.061-1.094c.903 0 1.806.122 2.708.365.903.226 1.646.53 2.23.912l-.823 1.486c-1.15-.782-2.522-1.173-4.115-1.173-1.203 0-2.114.208-2.734.625-.602.417-.902.965-.902 1.642 0 .521.168.938.504 1.251.354.313.787.547 1.3.704.514.139 1.222.287 2.124.443 1.115.209 2.009.417 2.681.625a3.949 3.949 0 011.726 1.07c.478.503.717 1.198.717 2.084 0 1.199-.514 2.155-1.54 2.867-1.009.695-2.416 1.043-4.22 1.043zM94.65 23.926c1.822 0 3.22.452 4.194 1.355.973.886 1.459 2.207 1.459 3.962v8.496h-1.805v-2.137c-.424.713-1.053 1.269-1.884 1.668-.814.4-1.788.6-2.92.6-1.558 0-2.796-.365-3.717-1.095-.92-.73-1.38-1.694-1.38-2.893 0-1.164.425-2.102 1.274-2.815.867-.712 2.239-1.069 4.115-1.069h4.433v-.834c0-1.181-.337-2.076-1.009-2.684-.672-.625-1.655-.938-2.947-.938-.884 0-1.734.147-2.548.443-.814.278-1.513.669-2.097 1.173l-.85-1.382c.709-.59 1.558-1.042 2.549-1.355a9.847 9.847 0 013.132-.495zm-.664 12.484c1.061 0 1.973-.234 2.734-.704.76-.486 1.327-1.181 1.699-2.085V31.38h-4.38c-2.39 0-3.584.817-3.584 2.45 0 .8.31 1.433.93 1.902.619.452 1.486.678 2.6.678zM113.652 37.74l5.574-13.45c.345-.833.584-1.563.584-2.162 0-1.251-.823-2.867-3.026-2.867-1.593 0-2.947.912-2.947 2.554 0 1.407 1.168 2.554 2.655 2.554 1.566 0 2.283-1.069 2.283-2.19 0-1.042-.584-1.59-1.354-1.85-.159-.052-.212-.13-.212-.26s.106-.235.239-.235c.079 0 .185.026.292.052.769.209 1.566.99 1.566 2.268 0 .834-.531 2.007-.982 3.05l-3.239 7.61h-.398l-4.831-12.902h2.15v-.417h-9.424v.417h1.54l6.026 15.925c.451 1.199 1.115 1.902 2.415 1.902h1.089zM128.799 37.374c-2.283 0-2.814-1.928-2.814-4.821h1.752c3.08 0 5.84-.834 5.84-3.57 0-2.972-3.026-3.963-6.079-3.963-4.22 0-6.901 2.424-6.901 6.49 0 4.3 2.76 6.49 7.406 6.49 3.159 0 5.123-1.746 5.627-4.535l-.477-.078-.053.234c-.478 2.294-2.204 3.753-4.301 3.753zm-2.84-7.167c0-4.04.557-4.717 1.539-4.717.717 0 1.248.703 1.248 3.466 0 1.903-.451 3.128-2.124 3.128h-.663v-1.877zM141.199 27.132V25.02c-1.778.365-3.477.496-5.309.496h-1.592v.417h1.884v11.155h-1.646v.417h8.548v-.417h-1.991V31.9c0-4.118 1.035-6.411 3.265-6.411.982 0 1.566.52 1.805.834.107.156.16.26.16.39 0 .157-.107.235-.239.235-.186 0-.266-.208-.425-.39a1.564 1.564 0 00-1.168-.522c-1.035 0-1.752.808-1.752 1.85 0 1.173.929 1.955 2.071 1.955 1.433 0 2.256-1.095 2.256-2.345 0-1.356-1.142-2.477-2.734-2.477-1.434 0-2.469.913-3 2.112h-.133zM161.415 19c-1.778.365-3.477.495-5.309.495h-1.592v.417h1.884v6.96h-.132c-.611-1.226-1.699-1.851-3.345-1.851-3.823 0-5.177 2.736-5.177 6.49 0 3.492 1.514 6.489 4.805 6.489 1.858 0 3.026-.6 3.717-2.294h.132v1.799h6.663v-.417h-1.646V19zm-4.911 12.51c0 2.372-.637 5.317-2.017 5.317-1.195 0-1.38-2.372-1.38-5.317 0-3.7.345-5.525 1.38-5.525.982 0 2.017 1.564 2.017 4.822v.703zM172.169 37.374c-2.283 0-2.814-1.928-2.814-4.821h1.752c3.079 0 5.84-.834 5.84-3.57 0-2.972-3.026-3.963-6.079-3.963-4.221 0-6.902 2.424-6.902 6.49 0 4.3 2.761 6.49 7.406 6.49 3.159 0 5.124-1.746 5.628-4.535l-.478-.078-.053.234c-.478 2.294-2.203 3.753-4.3 3.753zm-2.841-7.167c0-4.04.558-4.717 1.54-4.717.717 0 1.248.703 1.248 3.466 0 1.903-.452 3.128-2.124 3.128h-.664v-1.877z"/></g></svg>