<svg width="128" height="655" fill="none" xmlns="http://www.w3.org/2000/svg"><path fill-rule="evenodd" clip-rule="evenodd" d="M323.088 24.368c68.15-16.963 143.644 13.89 196.559 60.066 49.548 43.238 46.946 117.777 75.255 177.134 31.429 65.896 115.866 117.987 99.426 189.12-16.378 70.861-115.473 79.608-172.086 125.263-55.528 44.78-84.366 139.706-155.698 139.074-72.311-.64-97.692-100.558-157.062-141.845-55.286-38.448-147.726-28.183-175.588-89.49-27.74-61.034 19.644-129.605 48.515-190.113 23.844-49.972 65.295-84.472 102.199-125.75 45.409-50.793 72.366-127.003 138.48-143.459z" fill="#FFCB47"/></svg>