<svg width="360" height="875" fill="none" xmlns="http://www.w3.org/2000/svg"><path fill-rule="evenodd" clip-rule="evenodd" d="M364.914-342.488c93.902-60.351 215.414 23.341 321.531 58.048 89.396 29.238 175.226 63.069 244.242 126.995C1002.51-90.923 1056.46-9.526 1084.51 84.267c31.72 106.072 60.32 222.549 15.23 323.632-46.09 103.327-143.44 189.102-254.202 212.091-103.478 21.476-188.953-81.413-293.265-98.465-104.922-17.152-220.284 54.945-311.118-.336C145.38 462.901 73.872 346.625 81.041 234.736 88.06 125.198 227.437 77.916 275.868-20.561c50.363-102.408-6.941-260.236 89.046-321.927z" fill="#FFCB47"/></svg>